<?xml version="1.0" encoding="UTF-8"?>
<svg version="1.1" viewBox="50 220 940 570" width="940" height="570" xmlns="http://www.w3.org/2000/svg">
<path transform="translate(665,326)" d="m0 0h27l12 3 8 4 7 6 5 10 1 5v7l-3 10-4 6-9 8-12 6-9 3h-6l-2-2v-7l16-8 7-5 4-8v-8l-3-6-6-5-10-3h-21l-31 2-2 4 11 22 11 23 10 19 14 28 10 19 14 27-2 3-5-1-10-12-14-19-13-18-12-18v-2l-18 10-20 14-28 22-17 14-11 10-11 9-7 7-8 7-11 10-8 7-10 9-11 9-10 9-11 9-13 11-18 13-12 8-17 10-23 11-30 10-22 4-11 1h-25l-22-3-24-7-23-11-15-10-11-9-11-11-9-13 5-6h2v-4h2l6 9 9 10 8 8 13 9 16 8 15 6 17 4 7 1h33l19-3 18-5 21-8 20-10 20-12 18-12 12-9 13-10 14-11 14-12 11-9 15-13 11-9 9-8 8-7 14-12 34-28 20-15 18-13 11-7-2-4-16 10-18 13-17 13-33 27-13 11-11 9-15 13-13 11-10 9-14 11-10 9-14 11-15 12-17 12-19 12-25 13-25 9-17 4-13 2h-30l-19-3-21-7-17-9-13-10-11-11-7-10-2-5 5-1 6-5 3-6h2l1-2 8 15 8 10 7 7 11 8 15 8 17 6 10 2 10 1h23l19-3 17-5 21-9 19-11 14-10 17-13 30-26 11-10 8-7 11-10 11-9 8-8 11-9 9-8 11-9 17-14 16-12 13-8 11-9 10-9 17-12 5-2-12 1-47 9-73 13-37 7-24 4h-5l-4-5-11-23-14-29-2-1h-11l-9-3-8-6-5-6-2-4 1-7 2-2 13 1 22 3 51 4 10 2v5l-2 2-40 5-6 2 1 7 16 33 5 10 18-3 63-14 79-20 14-4 2-3v-6l-6-16 1-6 2-2 13-2z" fill="#FFFFFF"/>
<path transform="translate(702,398)" d="m0 0h36l24 4 18 6 17 8 14 9 10 8 11 10 13 17 8 15 5 15 2 10v32l-2 10h-2l-1 7-5 12-6 12-11 14-11 11-15 11-23 12-20 7-22 5-17 2h-35l-23-3-21-5-26-9-22-10-23-13-24-16-17-13-16-13-10-9 2-4 17-16h3l12 11 11 9 16 13 17 12 20 13 18 10 17 8 15 6 17 5 19 4 8 1h38l22-4 16-5 18-8 14-9 10-8 11-11 7-10 8-15 5-22v-24l-3-14-6-15-9-14-12-14-12-10-15-9-17-8-18-5-16-3h-5l19 4 15 5 23 12 13 10 8 7 9 11 7 10 7 15 4 15 1 18-2 15-5 16-6 11-6 8-7 6-5 5-8 7-14 9-15 7-18 6-16 3-8 1h-29l-22-3-25-7-25-10-19-10-15-9-13-9-17-13-2-3 4 2 17 12 24 14 19 9 25 9 22 5 17 2h22l21-3 18-5 21-10 12-9 11-10 10-16 5-12 3-14v-19l-4-17-8-16-8-10-7-8-15-11-15-8-18-6-15-3-12-1h-14l-17 2h-5l-5-8-3-6v-3l19-5z" fill="#7A7A95"/>
<path transform="translate(294,394)" d="m0 0h27l21 3 22 6 19 7 14 7v2l6 2 16 10 16 11 17 13 16 13 14 12 3 3-1 3-8 7-9 8-4-2-12-11-13-12-11-9-12-10-17-13-23-12-23-8-17-3h-30l-13 2-17 5-13 5-15 9-14 12-10 13-8 16-4 14-1 8v10l3 17 2 9h-4l-1 4-4 5-6 4-2 1 7 10 9 10 9 8 14 9 13 6 18 6 19 3h30l23-4 24-8 16-7 19-10 17-11 14-10 18-14 11-9 13-11 11-9 14-12 15-13 13-11 14-12 33-27 15-12 18-13 17-12 10-6 3 4-4 4-15 10-19 14-14 11-11 9-17 14-14 12-8 7-13 11-14 12-13 11-14 12-11 9-14 11-13 10-18 13-21 13-18 10-19 9-24 8-19 4-8 1h-33l-17-3-18-6-17-8-13-9-10-9-9-9-7-10-1-1-1 3-6 5h-3v-3h-2l-7-16-5-19-1-8v-16l3-18 5-15 8-15 9-12 9-10 11-10 20-13 15-7 24-8 15-3z" fill="#7A7A95"/>
<path transform="translate(528,523)" d="m0 0 7 6 11 9 14 12 20 15 15 10 13 8 16 9 17 8 15 6 17 5 19 4 8 1h38l22-4 16-5 18-8 14-9 10-8 11-11 7-10 8-15 4-11 1 3 8 2-3 12-8 18-9 12-9 10-11 10-15 10-23 11-18 6-25 5-11 1h-35l-23-3-21-5-26-9-22-10-23-13-24-16-17-13-16-13-10-9 2-4 17-16z" fill="#FFFFFF"/>
<path transform="translate(632,396)" d="m0 0 3 4-4 4-15 10-19 14-14 11-11 9-17 14-14 12-8 7-13 11-14 12-13 11-14 12-11 9-14 11-13 10-18 13-21 13-18 10-19 9-24 8-19 4-8 1h-33l-17-3-18-6-17-8-13-9-10-9-9-9-7-10-4-10-5-12-3-13-1-17 2-16 4-13 8-16 8-11 9-10 13-11 16-10 15-7 24-7h6l-4 2-24 8-19 10-16 12-10 10-10 14-8 16-4 14-1 6v22l4 18 6 13v2l3 1 6 9 9 10 9 8 14 9 13 6 18 6 19 3h30l23-4 24-8 16-7 19-10 17-11 14-10 18-14 11-9 13-11 11-9 14-12 15-13 13-11 14-12 33-27 15-12 18-13 17-12z" fill="#3A3A55"/>
<path transform="translate(565,545)" d="m0 0 4 2 17 12 24 14 19 9 25 9 22 5 17 2h22l21-3 18-5 21-10 12-9 11-10 5-5 13 3 6 4-2 4-7 8-10 8-14 9-15 7-18 6-16 3-8 1h-29l-22-3-25-7-25-10-19-10-15-9-13-9-17-13z" fill="#FFFFFF"/>
<path transform="translate(395,418)" d="m0 0 6 2 18 11 16 11 17 13 16 13 14 12 3 3-1 3-8 7-9 8-4-2-12-11-13-12-11-9-12-10-17-13-8-5v-8l5-10z" fill="#FFFFFF"/>
</svg>
